<?xml version="1.0" encoding="UTF-8"?>
<!DOCTYPE svg PUBLIC "-//W3C//DTD SVG 1.1//EN" "http://www.w3.org/Graphics/SVG/1.1/DTD/svg11.dtd">
<!-- Creator: CorelDRAW 2018 (64 Bit Versão de avaliação) -->
<svg xmlns="http://www.w3.org/2000/svg" xml:space="preserve" width="297mm" height="210mm" version="1.1" style="shape-rendering:geometricPrecision; text-rendering:geometricPrecision; image-rendering:optimizeQuality; fill-rule:evenodd; clip-rule:evenodd"
viewBox="0 0 29700 21000"
 xmlns:xlink="http://www.w3.org/1999/xlink">
 <defs>
  <style type="text/css">
   <![CDATA[
    .str0 {stroke:#373435;stroke-width:20;stroke-miterlimit:22.9256}
    .fil1 {fill:#BDBFC1}
    .fil0 {fill:#61008B}
    .fil2 {fill:#61008B}
   ]]>
  </style>
 </defs>
 <g id="Camada_x0020_1">
  <metadata id="CorelCorpID_0Corel-Layer"/>
  <path class="fil0" d="M11017.68 14673.54c413.05,385.65 1507.84,943.93 2063.14,1178.8 786.08,332.47 1671.93,578.56 2619.09,633.7 2094.02,121.89 3541.74,-842.71 4069.73,-2393.08 611.96,-1797 -219.87,-3832.28 -996.45,-5088.84 -425.69,-688.81 -619.19,-872.2 -1039.97,-1394.79 -62.85,-78.07 -123.9,-131.51 -186.71,-210.36 -71.09,-89.24 -129.38,-126.16 -206.94,-207.67 -67.68,-71.11 -126.83,-129.07 -198.65,-198.27 -366.11,-352.74 -662.3,-640.48 -1096.59,-942.49 -109.81,-76.34 -398.56,-271.25 -507.38,-306.38 -44.55,44.11 -92.03,118.85 -108.44,183.73l361.92 269.96c105.99,82.62 241.64,195.66 355.96,264.85l107.02 65.75c32.57,23.31 60.59,44.33 92.27,69.05 327.66,255.57 433.75,358.99 727.2,607.53l978.24 1041.91c643.34,754.95 1232.3,1914.95 1464.43,2919.39 182.06,787.71 156.68,1627.33 -139.62,2334.68 -606.6,1448.02 -2108.33,1886.81 -3612.95,1726.03 -1286.98,-137.52 -2642.97,-779.95 -3663.92,-1549.6l-99.46 -87.21c-550.35,-360.98 -1134.83,-841.45 -1598.41,-1317.11 -47.5,-48.74 -93.58,-80.47 -140.75,-129.61l-502.01 -580.06c-1201.16,-1478.87 -2324.53,-4058.08 -1003.86,-5854.27 212.76,-289.39 542.58,-566.29 859.42,-744.95 513.44,-289.52 1118.11,-412.47 1721.22,-427.73 374.49,-9.48 655.42,48.13 1005.73,76.03l-21.88 -54.57c-329.94,-3.11 -560.9,-76.08 -1092.43,-60.37 -1083.45,32 -2241.24,414.5 -2904.04,1213.03 -303.41,365.55 -473.41,603.31 -653.2,1096.59 -816.53,2240.29 596.87,5065.59 2152.56,6730.9l1195.73 1135.43z"/>
  <path class="fil1" d="M11017.68 14673.54l-1195.73 -1135.43c-1555.69,-1665.31 -2969.09,-4490.61 -2152.56,-6730.9 179.79,-493.28 349.79,-731.04 653.2,-1096.59 662.8,-798.53 1820.59,-1181.03 2904.04,-1213.03 531.53,-15.71 762.49,57.26 1092.43,60.37l-94.97 -345.06c-162.69,-76.15 -878.15,-144.8 -1104.94,-158.32 -1069.37,-63.79 -2170.33,168.45 -3002.44,818.3 -1706.01,1332.33 -1496.03,3888.13 -625.55,5674.82 616.01,1264.35 1170.28,1977.33 2122.48,2963.98 222.15,230.19 1212.53,1111.97 1404.04,1161.86z"/>
  <polygon id="letter_s" class="fil1" points="12381.54,3076.93 15361.47,6986.86 15361.47,8072.74 14882.91,8901.64 17898.21,14124.3 14087.03,8899.01 14638.97,7943.02 14604.54,7094.96 "/>
  <polygon id="letter_r" class="fil2 str0" points="13767.56,5941.61 11218.01,5924.39 11218.01,11488.06 11989.21,11488.06 11989.21,6516.22 14041,6516.22 "/>
 </g>
</svg>
